<?xml version="1.0" encoding="UTF-8"?>
<svg width="22px" height="19px" viewBox="0 0 22 19" version="1.1" xmlns="http://www.w3.org/2000/svg" xmlns:xlink="http://www.w3.org/1999/xlink">
    <!-- Generator: Sketch 43.2 (39069) - http://www.bohemiancoding.com/sketch -->
    <title>Shape</title>
    <desc>Created with Sketch.</desc>
    <defs></defs>
    <g id="Page-1" stroke="none" stroke-width="1" fill="none" fill-rule="evenodd">
        <g id="Desktop-HD-Copy" transform="translate(-907.000000, -885.000000)" fill-rule="nonzero" fill="#FFFFFF">
            <g id="paper-plane" transform="translate(907.000000, 885.000000)">
                <path d="M0.00192668024,9.50882783 C0.0288105906,9.96142217 0.329014257,10.3423184 0.763637475,10.4722712 L8.81088798,12.9055259 L9.106611,18.4531675 C9.12005295,18.6727429 9.26791446,18.8654316 9.47850509,18.9371297 C9.53675356,18.9595354 9.59948269,18.9684976 9.65773116,18.9684976 C9.81455397,18.9684976 9.96241548,18.9057618 10.0699511,18.7847712 L12.915165,15.6345354 L16.9477515,18.4262807 C17.1269776,18.5517524 17.3375682,18.6189693 17.5571202,18.6189693 C18.0634338,18.6189693 18.5025377,18.2604788 18.6100733,17.758592 L21.9571202,0.69892217 C21.997446,0.501752358 21.9212749,0.295620283 21.7689328,0.170148585 C21.61211,0.0401957547 21.4015193,0.00882783019 21.213332,0.0850070755 L0.64714053,8.45576179 C0.230439919,8.64396934 -0.0249572301,9.05623349 0.00192668024,9.50882783 Z M10.1281996,17.0774599 L9.94449287,13.5776958 L12.0055927,15.0026958 L10.1281996,17.0774599 Z M17.5391976,17.5031675 L10.19989,12.4215637 L20.491947,2.46448821 L17.5391976,17.5031675 Z M19.3628228,2.02533726 L9.18726273,11.8703844 L1.14897352,9.44161085 L19.3628228,2.02533726 Z" id="Shape"></path>
            </g>
        </g>
    </g>
</svg>